<?xml version="1.0" standalone="no"?>
<svg xmlns:xlink="http://www.w3.org/1999/xlink" id="wave" style="transform:rotate(0deg); transition: 0.3s" viewBox="0 0 1440 490" version="1.1" xmlns="http://www.w3.org/2000/svg"><defs><linearGradient id="sw-gradient-0" x1="0" x2="0" y1="1" y2="0"><stop stop-color="rgba(0, 0, 0, 1)" offset="0%"/><stop stop-color="rgba(0, 0, 0, 1)" offset="100%"/></linearGradient></defs><path style="transform:translate(0, 0px); opacity:1" fill="url(#sw-gradient-0)" d="M0,147L60,122.5C120,98,240,49,360,98C480,147,600,294,720,294C840,294,960,147,1080,73.5C1200,0,1320,0,1440,40.8C1560,82,1680,163,1800,220.5C1920,278,2040,310,2160,310.3C2280,310,2400,278,2520,269.5C2640,261,2760,278,2880,269.5C3000,261,3120,229,3240,220.5C3360,212,3480,229,3600,212.3C3720,196,3840,147,3960,179.7C4080,212,4200,327,4320,334.8C4440,343,4560,245,4680,204.2C4800,163,4920,180,5040,204.2C5160,229,5280,261,5400,277.7C5520,294,5640,294,5760,245C5880,196,6000,98,6120,57.2C6240,16,6360,33,6480,98C6600,163,6720,278,6840,334.8C6960,392,7080,392,7200,367.5C7320,343,7440,294,7560,285.8C7680,278,7800,310,7920,310.3C8040,310,8160,278,8280,245C8400,212,8520,180,8580,163.3L8640,147L8640,490L8580,490C8520,490,8400,490,8280,490C8160,490,8040,490,7920,490C7800,490,7680,490,7560,490C7440,490,7320,490,7200,490C7080,490,6960,490,6840,490C6720,490,6600,490,6480,490C6360,490,6240,490,6120,490C6000,490,5880,490,5760,490C5640,490,5520,490,5400,490C5280,490,5160,490,5040,490C4920,490,4800,490,4680,490C4560,490,4440,490,4320,490C4200,490,4080,490,3960,490C3840,490,3720,490,3600,490C3480,490,3360,490,3240,490C3120,490,3000,490,2880,490C2760,490,2640,490,2520,490C2400,490,2280,490,2160,490C2040,490,1920,490,1800,490C1680,490,1560,490,1440,490C1320,490,1200,490,1080,490C960,490,840,490,720,490C600,490,480,490,360,490C240,490,120,490,60,490L0,490Z"/></svg>